<svg width="25" height="25" viewBox="0 0 25 25" fill="none" xmlns="http://www.w3.org/2000/svg">
<g clip-path="url(#clip0)">
<path 
  d="M10.3646 19.0548L7.41864 22.0007C6.19732 23.2219 4.21948 23.2219 2.99918 22.0009C1.77863 20.7804 1.77863 18.8024 2.99893 17.5821L8.89183 11.6894C10.1121 10.4691 12.0902 10.4691 13.3105 11.6894C13.7173 12.0962 14.3769 12.0962 14.7837 11.6894C15.1905 11.2826 15.1905 10.623 14.7837 10.2162C12.7497 8.18232 9.45259 8.18232 7.41864 10.2162L1.5258 16.1089C-0.508151 18.1428 -0.508151 21.4399 1.5258 23.4738C3.5595 25.5087 6.85686 25.5087 8.89188 23.4738L11.8378 20.5279C12.2446 20.1211 12.2446 19.4615 11.8378 19.0547C11.431 18.6479 10.7714 18.648 10.3646 19.0548Z" 
  fill="$color-primary"
/>
<path 
  d="M23.4749 1.52536C21.4409 -0.508535 18.1427 -0.508535 16.1088 1.52536L12.5743 5.05975C12.1675 5.46654 12.1675 6.12612 12.5743 6.53291C12.9811 6.9397 13.6407 6.9397 14.0475 6.53291L17.582 2.99851C18.8023 1.77819 20.7813 1.77819 22.0017 2.99851C23.222 4.21878 23.222 6.19677 22.0017 7.41704L15.5203 13.8984C14.2999 15.1187 12.3219 15.1187 11.1016 13.8984C10.6948 13.4916 10.0352 13.4916 9.62843 13.8984C9.22163 14.3052 9.22163 14.9647 9.62843 15.3715C11.6624 17.4054 14.9595 17.4054 16.9934 15.3715L23.4749 8.89024C25.5088 6.85635 25.5088 3.55926 23.4749 1.52536Z" 
  fill="$color-primary"
/>
</g>
<defs>
<clipPath id="clip0">
<rect width="25" height="25" fill="white"/>
</clipPath>
</defs>
</svg>
